<?xml version="1.0" standalone="no"?>
<!DOCTYPE svg PUBLIC "-//W3C//DTD SVG 20010904//EN"
 "http://www.w3.org/TR/2001/REC-SVG-20010904/DTD/svg10.dtd">
<svg version="1.0" xmlns="http://www.w3.org/2000/svg"
 width="225.000000pt" height="225.000000pt" viewBox="0 0 225.000000 225.000000"
 preserveAspectRatio="xMidYMid meet">

<g transform="translate(0.000000,225.000000) scale(0.100000,-0.100000)"
fill="#000000" stroke="none">
<path d="M975 2239 c-236 -31 -464 -145 -641 -323 -330 -330 -422 -804 -239
-1236 102 -244 341 -483 585 -585 357 -151 742 -115 1065 99 106 71 265 237
328 343 53 88 113 221 123 271 l7 32 -144 0 -144 0 -43 -89 c-99 -206 -291
-368 -517 -437 -80 -24 -106 -27 -230 -27 -124 0 -150 3 -230 27 -285 86 -495
296 -581 581 -24 80 -27 106 -27 230 0 124 3 150 27 230 86 285 297 495 581
581 77 23 109 27 225 28 161 1 245 -19 381 -90 78 -42 199 -132 208 -156 2 -6
-95 -109 -215 -229 l-219 -219 488 0 487 0 0 487 0 488 -168 -168 -168 -168
-29 32 c-59 61 -192 153 -290 200 -198 94 -400 126 -620 98z"/>
</g>
</svg>
